<svg xmlns="http://www.w3.org/2000/svg" viewBox="0 0 722 1061">
<defs><style>.a{fill:#67BED9}.b{fill:#fff;}</style></defs>
<g transform="translate(-189 -20)"><path class="a" d="M297.218,17.086a12,12,0,0,1,20.564,0L604.056,492.813A12,12,0,0,1,593.774,511H21.226a12,12,0,0,1-10.282-18.187Z" transform="translate(857 1081) rotate(180)"/><circle class="a" cx="361" cy="361" r="361" transform="translate(189 20)"/></g><g transform="translate(217 99)"><g transform="translate(-382.095 42.043)"><g transform="translate(382.095 -42.043)"><rect class="b" width="276" height="66" rx="33" transform="translate(6 37)"/><path class="b" d="M38,0h0A38,38,0,0,1,76,38V150a0,0,0,0,1,0,0H0a0,0,0,0,1,0,0V38A38,38,0,0,1,38,0Z" transform="translate(106 0)"/><path class="b" d="M66,0H88a66,66,0,0,1,66,66V85a0,0,0,0,1,0,0H0a0,0,0,0,1,0,0V66A66,66,0,0,1,66,0Z" transform="translate(67 132)"/><path class="b" d="M144,288a145.065,145.065,0,0,1-29.021-2.926,143.211,143.211,0,0,1-51.491-21.667,144.42,144.42,0,0,1-52.172-63.355,143.275,143.275,0,0,1-8.391-27.03,145.4,145.4,0,0,1,0-58.042A143.21,143.21,0,0,1,24.593,63.489,144.422,144.422,0,0,1,87.949,11.316a143.279,143.279,0,0,1,27.03-8.391,145.4,145.4,0,0,1,58.042,0,143.208,143.208,0,0,1,51.491,21.667,144.421,144.421,0,0,1,52.172,63.356,143.277,143.277,0,0,1,8.391,27.03,145.4,145.4,0,0,1,0,58.042,143.209,143.209,0,0,1-21.667,51.491,144.419,144.419,0,0,1-63.355,52.172,143.277,143.277,0,0,1-27.03,8.391A145.063,145.063,0,0,1,144,288Zm0-251.381A107.381,107.381,0,1,0,251.382,144,107.5,107.5,0,0,0,144,36.619Z" transform="translate(0 194)"/><path class="b" d="M0,0H134a0,0,0,0,1,0,0V155a20,20,0,0,1-20,20H20A20,20,0,0,1,0,155V0A0,0,0,0,1,0,0Z" transform="translate(77 458)"/><ellipse class="b" cx="59.5" cy="58.5" rx="59.5" ry="58.5" transform="translate(85 279)"/></g></g></g></svg>