<svg xmlns="http://www.w3.org/2000/svg" xmlns:xlink="http://www.w3.org/1999/xlink" width="120.34" height="150.529" viewBox="0 0 120.34 150.529">
  <defs>
    <clipPath id="clip-path">
      <rect id="Rectangle_252" data-name="Rectangle 252" width="120.34" height="105.649" fill="#fff"/>
    </clipPath>
  </defs>
  <g id="Group_242" data-name="Group 242" transform="translate(-2077.83 1043.018)">
    <path id="Path_143" data-name="Path 143" d="M41.288,19.058a33.237,33.237,0,0,1,23.584,9.767l-6.718,6.718a23.926,23.926,0,0,0-33.733,0L17.7,28.825A33.237,33.237,0,0,1,41.288,19.058Zm37.068-3.669-6.718,6.718a42.9,42.9,0,0,0-60.652-.048L4.22,15.342a52.394,52.394,0,0,1,74.135.048Z" transform="translate(2096.508 -1043.018)" fill="#fff"/>
    <g id="Group_241" data-name="Group 241" transform="translate(2077.83 -998.138)">
      <g id="Group_233" data-name="Group 233" transform="translate(0 0)" clip-path="url(#clip-path)">
        <path id="Path_134" data-name="Path 134" d="M15.679,105.649a15.891,15.891,0,0,1-7.789-2.113A15.77,15.77,0,0,1,2.123,82L46.68,7.611l.014-.021a15.762,15.762,0,0,1,26.961,0l44.533,74.343a15.769,15.769,0,0,1-13.468,23.72ZM55.688,13.028l-44.5,74.3a5.174,5.174,0,0,0-.487,3.914,5.257,5.257,0,0,0,5.031,3.9h88.943a5.261,5.261,0,0,0,4.457-7.883L64.654,13.014a5.259,5.259,0,0,0-8.966.014" transform="translate(0.001 -0.001)" fill="#fff"/>
        <path id="Path_135" data-name="Path 135" d="M20.93,40.687a5.255,5.255,0,0,1-5.256-5.256V14.409a5.256,5.256,0,0,1,10.511,0V35.431a5.255,5.255,0,0,1-5.256,5.256" transform="translate(39.244 22.916)" fill="#fff"/>
        <path id="Path_136" data-name="Path 136" d="M20.931,31.661a5.119,5.119,0,0,1-3.714-1.542,5.263,5.263,0,0,1-1.542-3.714,5.32,5.32,0,0,1,1.542-3.717,5.236,5.236,0,0,1,4.73-1.437,4.722,4.722,0,0,1,.981.315,4.414,4.414,0,0,1,.911.494,4.691,4.691,0,0,1,.809.627,5.317,5.317,0,0,1,1.538,3.717,5.259,5.259,0,0,1-1.538,3.714,5.174,5.174,0,0,1-3.717,1.542" transform="translate(39.246 52.954)" fill="#fff"/>
      </g>
    </g>
  </g>
</svg>
