<svg xmlns="http://www.w3.org/2000/svg" width="41.667" height="20.833" viewBox="0 0 41.667 20.833">
  <path id="Icon_awesome-battery-quarter" data-name="Icon awesome-battery-quarter" d="M35.417,10.917v4.167H37.5V19.25H35.417v4.167H4.167v-12.5h31.25M36.458,6.75H3.125A3.125,3.125,0,0,0,0,9.875V24.458a3.125,3.125,0,0,0,3.125,3.125H36.458a3.125,3.125,0,0,0,3.125-3.125V23.417H40.1a1.562,1.562,0,0,0,1.563-1.563V12.479A1.562,1.562,0,0,0,40.1,10.917h-.521V9.875A3.125,3.125,0,0,0,36.458,6.75ZM14.583,13H6.25v8.333h8.333Z" transform="translate(0 -6.75)" fill="#f8f8f8"/>
</svg>
