<svg xmlns="http://www.w3.org/2000/svg" width="28.498" height="30.847" viewBox="0 0 28.498 30.847">
  <path id="Icon_metro-water" data-name="Icon metro-water" d="M17.813,15.568C17.025,21.915,13,23.044,13,27.457a5,5,0,0,0,9.99,0c0-4.413-4.026-5.542-4.814-11.889a.187.187,0,0,0-.362,0ZM8.56,1.686C7.772,8.033,3.746,9.16,3.746,13.575a4.995,4.995,0,0,0,9.989,0c0-4.413-4.026-5.542-4.814-11.889a.186.186,0,0,0-.361,0Zm18.509,0c-.788,6.347-4.814,7.476-4.814,11.889a4.995,4.995,0,0,0,9.989,0c0-4.413-4.026-5.542-4.814-11.889a.186.186,0,0,0-.361,0Z" transform="translate(-3.746 -1.544)" fill="#fff"/>
</svg>
